<?xml version="1.0" standalone="no"?>
<!DOCTYPE svg PUBLIC "-//W3C//DTD SVG 20010904//EN"
 "http://www.w3.org/TR/2001/REC-SVG-20010904/DTD/svg10.dtd">
<svg version="1.0" xmlns="http://www.w3.org/2000/svg"
 width="8000.000000pt" height="8000.000000pt" viewBox="0 0 8000.000000 8000.000000"
 preserveAspectRatio="xMidYMid meet">

<g transform="translate(0.000000,8000.000000) scale(0.100000,-0.100000)"
fill="#000000" stroke="none">
<path d="M0 40000 l0 -40000 40000 0 40000 0 0 40000 0 40000 -40000 0 -40000
0 0 -40000z m40304 21370 c582 -88 1091 -344 1501 -755 142 -142 226 -245 340
-415 76 -115 15960 -27635 16124 -27938 288 -529 517 -1179 630 -1787 105
-566 128 -1189 65 -1755 -178 -1605 -993 -3106 -2239 -4127 -826 -676 -1780
-1115 -2824 -1298 -159 -27 -310 -48 -536 -73 -138 -15 -1171 -17 -13335 -20
-9448 -2 -13240 0 -13380 8 -1237 69 -2381 482 -3355 1212 -1125 842 -1959
2088 -2298 3433 -192 757 -242 1481 -156 2220 86 746 329 1518 682 2173 122
227 16064 27849 16132 27952 146 221 354 449 556 610 387 309 878 515 1359
569 52 6 111 13 130 15 97 11 471 -4 604 -24z"/>
<path d="M35813 48411 l-1732 -3349 -4189 -7498 c-2304 -4125 -4205 -7530
-4224 -7569 -45 -88 -91 -225 -115 -335 -14 -67 -18 -129 -18 -295 1 -195 3
-218 28 -319 73 -292 221 -547 433 -745 194 -181 418 -296 709 -363 l100 -23
5373 -2 5372 -3 0 11925 c0 6559 -1 11925 -3 11925 -2 0 -782 -1507 -1734
-3349z"/>
<path d="M42260 39833 l0 -11923 5263 0 c3427 0 5307 4 5392 10 373 29 685
170 940 426 200 202 332 445 397 735 31 140 33 446 4 579 -22 103 -77 263
-117 342 -16 32 -1921 3441 -4232 7575 l-4203 7518 -1669 3230 c-917 1777
-1692 3275 -1721 3330 l-54 100 0 -11922z"/>
</g>
</svg>
